<svg width="60" height="60" viewBox="0 0 60 60" fill="none" xmlns="http://www.w3.org/2000/svg">
<rect width="60" height="60" rx="30" fill="#9373FF"/>
<path d="M23.5762 23.7451L18.3984 38H16.2822L22.2441 22.3594H23.6084L23.5762 23.7451ZM27.916 38L22.7275 23.7451L22.6953 22.3594H24.0596L30.043 38H27.916ZM27.6475 32.21V33.9072H18.8604V32.21H27.6475ZM37.7129 30.6846H33.749L33.7275 29.0195H37.3262C37.9206 29.0195 38.4398 28.9193 38.8838 28.7188C39.3278 28.5182 39.6715 28.2318 39.915 27.8594C40.1657 27.4798 40.291 27.0286 40.291 26.5059C40.291 25.9329 40.18 25.4674 39.958 25.1094C39.7432 24.7441 39.4102 24.4792 38.959 24.3145C38.515 24.1426 37.9492 24.0566 37.2617 24.0566H34.2109V38H32.1377V22.3594H37.2617C38.0638 22.3594 38.7799 22.4417 39.4102 22.6064C40.0404 22.764 40.5739 23.0146 41.0107 23.3584C41.4548 23.695 41.7913 24.1247 42.0205 24.6475C42.2497 25.1702 42.3643 25.7969 42.3643 26.5273C42.3643 27.1719 42.1995 27.7555 41.8701 28.2783C41.5407 28.7939 41.0824 29.2165 40.4951 29.5459C39.915 29.8753 39.2347 30.0866 38.4541 30.1797L37.7129 30.6846ZM37.6162 38H32.9326L34.1035 36.3135H37.6162C38.2751 36.3135 38.8337 36.1989 39.292 35.9697C39.7575 35.7406 40.112 35.4183 40.3555 35.0029C40.599 34.5804 40.7207 34.0827 40.7207 33.5098C40.7207 32.9297 40.6169 32.4284 40.4092 32.0059C40.2015 31.5833 39.8757 31.2575 39.4316 31.0283C38.9876 30.7992 38.4147 30.6846 37.7129 30.6846H34.7588L34.7803 29.0195H38.8193L39.2598 29.6211C40.0117 29.6855 40.6491 29.9004 41.1719 30.2656C41.6947 30.6237 42.0921 31.082 42.3643 31.6406C42.6436 32.1992 42.7832 32.8151 42.7832 33.4883C42.7832 34.4622 42.5684 35.2858 42.1387 35.959C41.7161 36.625 41.1182 37.1335 40.3447 37.4844C39.5713 37.8281 38.6618 38 37.6162 38Z" fill="#201F24"/>
</svg>
